<?xml version="1.0"?>
<!-- Generated by SVGo and Plotinum VG -->
<svg width="300pt" height="300pt" viewBox="0 0 300 300"
	 xmlns="http://www.w3.org/2000/svg"
>
<g transform="scale(1, -1) translate(0, -300)">
<path d="M0,0L300,0L300,300L0,300Z" style="fill:#FFFFFF" />
<text x="42.208" y="-3.252" transform="scale(1, -1)"
	style="font-family:Times;font-weight:normal;font-style:normal;font-size:10px">70</text>
<text x="149.84" y="-3.252" transform="scale(1, -1)"
	style="font-family:Times;font-weight:normal;font-style:normal;font-size:10px">80</text>
<text x="257.48" y="-3.252" transform="scale(1, -1)"
	style="font-family:Times;font-weight:normal;font-style:normal;font-size:10px">90</text>
<path d="M47.208,11.074L47.208,19.074" style="fill:none;stroke:#000000;stroke-width:0.5" />
<path d="M154.84,11.074L154.84,19.074" style="fill:none;stroke:#000000;stroke-width:0.5" />
<path d="M262.48,11.074L262.48,19.074" style="fill:none;stroke:#000000;stroke-width:0.5" />
<path d="M68.735,15.074L68.735,19.074" style="fill:none;stroke:#000000;stroke-width:0.5" />
<path d="M90.263,15.074L90.263,19.074" style="fill:none;stroke:#000000;stroke-width:0.5" />
<path d="M111.79,15.074L111.79,19.074" style="fill:none;stroke:#000000;stroke-width:0.5" />
<path d="M133.32,15.074L133.32,19.074" style="fill:none;stroke:#000000;stroke-width:0.5" />
<path d="M176.37,15.074L176.37,19.074" style="fill:none;stroke:#000000;stroke-width:0.5" />
<path d="M197.9,15.074L197.9,19.074" style="fill:none;stroke:#000000;stroke-width:0.5" />
<path d="M219.43,15.074L219.43,19.074" style="fill:none;stroke:#000000;stroke-width:0.5" />
<path d="M240.95,15.074L240.95,19.074" style="fill:none;stroke:#000000;stroke-width:0.5" />
<path d="M284.01,15.074L284.01,19.074" style="fill:none;stroke:#000000;stroke-width:0.5" />
<path d="M40.75,19.074L298,19.074" style="fill:none;stroke:#000000;stroke-width:0.5" />
<text x="0" y="-53.045" transform="scale(1, -1)"
	style="font-family:Times;font-weight:normal;font-style:normal;font-size:10px">15.00</text>
<text x="0" y="-173.91" transform="scale(1, -1)"
	style="font-family:Times;font-weight:normal;font-style:normal;font-size:10px">17.50</text>
<text x="0" y="-294.77" transform="scale(1, -1)"
	style="font-family:Times;font-weight:normal;font-style:normal;font-size:10px">20.00</text>
<path d="M25,55.331L33,55.331" style="fill:none;stroke:#000000;stroke-width:0.5" />
<path d="M25,176.19L33,176.19" style="fill:none;stroke:#000000;stroke-width:0.5" />
<path d="M25,297.05L33,297.05" style="fill:none;stroke:#000000;stroke-width:0.5" />
<path d="M29,31.159L33,31.159" style="fill:none;stroke:#000000;stroke-width:0.5" />
<path d="M29,79.503L33,79.503" style="fill:none;stroke:#000000;stroke-width:0.5" />
<path d="M29,103.67L33,103.67" style="fill:none;stroke:#000000;stroke-width:0.5" />
<path d="M29,127.85L33,127.85" style="fill:none;stroke:#000000;stroke-width:0.5" />
<path d="M29,152.02L33,152.02" style="fill:none;stroke:#000000;stroke-width:0.5" />
<path d="M29,200.36L33,200.36" style="fill:none;stroke:#000000;stroke-width:0.5" />
<path d="M29,224.53L33,224.53" style="fill:none;stroke:#000000;stroke-width:0.5" />
<path d="M29,248.71L33,248.71" style="fill:none;stroke:#000000;stroke-width:0.5" />
<path d="M29,272.88L33,272.88" style="fill:none;stroke:#000000;stroke-width:0.5" />
<path d="M33,26.324L33,297.05" style="fill:none;stroke:#000000;stroke-width:0.5" />
<path d="M249.41,297.05A2,2 0 1 1 245.41,297.05A2,2 0 1 1 249.41,297.05Z" style="fill:none;stroke:#000000;stroke-width:0.5" />
<path d="M66.43,103.67A2,2 0 1 1 62.43,103.67A2,2 0 1 1 66.43,103.67Z" style="fill:none;stroke:#000000;stroke-width:0.5" />
<path d="M300,287.38A2,2 0 1 1 296,287.38A2,2 0 1 1 300,287.38Z" style="fill:none;stroke:#000000;stroke-width:0.5" />
<path d="M203.13,219.7A2,2 0 1 1 199.13,219.7A2,2 0 1 1 203.13,219.7Z" style="fill:none;stroke:#000000;stroke-width:0.5" />
<path d="M163.3,156.85A2,2 0 1 1 159.3,156.85A2,2 0 1 1 163.3,156.85Z" style="fill:none;stroke:#000000;stroke-width:0.5" />
<path d="M105.18,79.503A2,2 0 1 1 101.18,79.503A2,2 0 1 1 105.18,79.503Z" style="fill:none;stroke:#000000;stroke-width:0.5" />
<path d="M45.979,40.827A2,2 0 1 1 41.979,40.827A2,2 0 1 1 45.979,40.827Z" style="fill:none;stroke:#000000;stroke-width:0.5" />
<path d="M178.37,156.85A2,2 0 1 1 174.37,156.85A2,2 0 1 1 178.37,156.85Z" style="fill:none;stroke:#000000;stroke-width:0.5" />
<path d="M42.75,74.668A2,2 0 1 1 38.75,74.668A2,2 0 1 1 42.75,74.668Z" style="fill:none;stroke:#000000;stroke-width:0.5" />
<path d="M192.36,118.18A2,2 0 1 1 188.36,118.18A2,2 0 1 1 192.36,118.18Z" style="fill:none;stroke:#000000;stroke-width:0.5" />
<path d="M152.54,55.331A2,2 0 1 1 148.54,55.331A2,2 0 1 1 152.54,55.331Z" style="fill:none;stroke:#000000;stroke-width:0.5" />
<path d="M184.83,161.69A2,2 0 1 1 180.83,161.69A2,2 0 1 1 184.83,161.69Z" style="fill:none;stroke:#000000;stroke-width:0.5" />
<path d="M163.3,103.67A2,2 0 1 1 159.3,103.67A2,2 0 1 1 163.3,103.67Z" style="fill:none;stroke:#000000;stroke-width:0.5" />
<path d="M194.52,152.02A2,2 0 1 1 190.52,152.02A2,2 0 1 1 194.52,152.02Z" style="fill:none;stroke:#000000;stroke-width:0.5" />
<path d="M117.02,26.324A2,2 0 1 1 113.02,26.324A2,2 0 1 1 117.02,26.324Z" style="fill:none;stroke:#000000;stroke-width:0.5" />
<path d="M40.77,26.324L46,31.315L51.25,36.324L56.5,41.334L61.75,46.343L67,51.352L72.25,56.362L77.5,61.371L82.75,66.381L88,71.39L93.25,76.399L98.5,81.409L103.75,86.418L109,91.428L114.25,96.437L119.5,101.45L124.75,106.46L130,111.47L135.25,116.47L140.5,121.48L145.75,126.49L151,131.5L156.25,136.51L161.5,141.52L166.75,146.53L172,151.54L177.25,156.55L182.5,161.56L187.75,166.57L193,171.58L198.25,176.59L203.5,181.6L208.75,186.61L214,191.62L219.25,196.63L224.5,201.63L229.75,206.64L235,211.65L240.25,216.66L245.5,221.67L250.75,226.68L256,231.69L261.25,236.7L266.5,241.71L271.75,246.72L277,251.73L282.25,256.74L287.5,261.75L292.75,266.76L298,271.77" style="fill:none;stroke:#000000" />
</g>
</svg>
