<?xml version="1.0"?>
<!-- Generated by SVGo and Plotinum VG -->
<svg width="300pt" height="300pt" viewBox="0 0 300 300"
	 xmlns="http://www.w3.org/2000/svg">
<g transform="scale(1, -1) translate(0, -300)">
<path d="M0,0L300,0L300,300L0,300Z" style="fill:#FFFFFF" />
<text x="69.755" y="-3.252" transform="scale(1, -1)"
	style="font-family:Times;font-weight:normal;font-style:normal;font-size:10px">-19</text>
<text x="166.09" y="-3.252" transform="scale(1, -1)"
	style="font-family:Times;font-weight:normal;font-style:normal;font-size:10px">-17</text>
<text x="262.43" y="-3.252" transform="scale(1, -1)"
	style="font-family:Times;font-weight:normal;font-style:normal;font-size:10px">-15</text>
<path d="M76.42,11.074L76.42,19.074" style="fill:none;stroke:#000000;stroke-width:0.5" />
<path d="M172.76,11.074L172.76,19.074" style="fill:none;stroke:#000000;stroke-width:0.5" />
<path d="M269.1,11.074L269.1,19.074" style="fill:none;stroke:#000000;stroke-width:0.5" />
<path d="M124.59,15.074L124.59,19.074" style="fill:none;stroke:#000000;stroke-width:0.5" />
<path d="M220.93,15.074L220.93,19.074" style="fill:none;stroke:#000000;stroke-width:0.5" />
<path d="M28.25,19.074L298,19.074" style="fill:none;stroke:#000000;stroke-width:0.5" />
<text x="0" y="-30.859" transform="scale(1, -1)"
	style="font-family:Times;font-weight:normal;font-style:normal;font-size:10px">70</text>
<text x="0" y="-144.53" transform="scale(1, -1)"
	style="font-family:Times;font-weight:normal;font-style:normal;font-size:10px">80</text>
<text x="0" y="-258.2" transform="scale(1, -1)"
	style="font-family:Times;font-weight:normal;font-style:normal;font-size:10px">90</text>
<path d="M12.5,33.145L20.5,33.145" style="fill:none;stroke:#000000;stroke-width:0.5" />
<path d="M12.5,146.82L20.5,146.82" style="fill:none;stroke:#000000;stroke-width:0.5" />
<path d="M12.5,260.49L20.5,260.49" style="fill:none;stroke:#000000;stroke-width:0.5" />
<path d="M16.5,55.879L20.5,55.879" style="fill:none;stroke:#000000;stroke-width:0.5" />
<path d="M16.5,78.613L20.5,78.613" style="fill:none;stroke:#000000;stroke-width:0.5" />
<path d="M16.5,101.35L20.5,101.35" style="fill:none;stroke:#000000;stroke-width:0.5" />
<path d="M16.5,124.08L20.5,124.08" style="fill:none;stroke:#000000;stroke-width:0.5" />
<path d="M16.5,169.55L20.5,169.55" style="fill:none;stroke:#000000;stroke-width:0.5" />
<path d="M16.5,192.29L20.5,192.29" style="fill:none;stroke:#000000;stroke-width:0.5" />
<path d="M16.5,215.02L20.5,215.02" style="fill:none;stroke:#000000;stroke-width:0.5" />
<path d="M16.5,237.75L20.5,237.75" style="fill:none;stroke:#000000;stroke-width:0.5" />
<path d="M16.5,283.22L20.5,283.22" style="fill:none;stroke:#000000;stroke-width:0.5" />
<path d="M20.5,26.324L20.5,298" style="fill:none;stroke:#000000;stroke-width:0.5" />
<path d="M30.25,244.57A2,2 0 1 1 26.25,244.57A2,2 0 1 1 30.25,244.57Z" style="fill:none;stroke:#000000;stroke-width:0.5" />
<path d="M222.93,51.332A2,2 0 1 1 218.93,51.332A2,2 0 1 1 222.93,51.332Z" style="fill:none;stroke:#000000;stroke-width:0.5" />
<path d="M39.884,298A2,2 0 1 1 35.884,298A2,2 0 1 1 39.884,298Z" style="fill:none;stroke:#000000;stroke-width:0.5" />
<path d="M107.32,195.7A2,2 0 1 1 103.32,195.7A2,2 0 1 1 107.32,195.7Z" style="fill:none;stroke:#000000;stroke-width:0.5" />
<path d="M169.94,153.64A2,2 0 1 1 165.94,153.64A2,2 0 1 1 169.94,153.64Z" style="fill:none;stroke:#000000;stroke-width:0.5" />
<path d="M247.01,92.254A2,2 0 1 1 243.01,92.254A2,2 0 1 1 247.01,92.254Z" style="fill:none;stroke:#000000;stroke-width:0.5" />
<path d="M285.55,29.734A2,2 0 1 1 281.55,29.734A2,2 0 1 1 285.55,29.734Z" style="fill:none;stroke:#000000;stroke-width:0.5" />
<path d="M169.94,169.55A2,2 0 1 1 165.94,169.55A2,2 0 1 1 169.94,169.55Z" style="fill:none;stroke:#000000;stroke-width:0.5" />
<path d="M251.83,26.324A2,2 0 1 1 247.83,26.324A2,2 0 1 1 251.83,26.324Z" style="fill:none;stroke:#000000;stroke-width:0.5" />
<path d="M208.48,184.33A2,2 0 1 1 204.48,184.33A2,2 0 1 1 208.48,184.33Z" style="fill:none;stroke:#000000;stroke-width:0.5" />
<path d="M271.1,142.27A2,2 0 1 1 267.1,142.27A2,2 0 1 1 271.1,142.27Z" style="fill:none;stroke:#000000;stroke-width:0.5" />
<path d="M165.12,176.37A2,2 0 1 1 161.12,176.37A2,2 0 1 1 165.12,176.37Z" style="fill:none;stroke:#000000;stroke-width:0.5" />
<path d="M222.93,153.64A2,2 0 1 1 218.93,153.64A2,2 0 1 1 222.93,153.64Z" style="fill:none;stroke:#000000;stroke-width:0.5" />
<path d="M174.76,186.6A2,2 0 1 1 170.76,186.6A2,2 0 1 1 174.76,186.6Z" style="fill:none;stroke:#000000;stroke-width:0.5" />
<path d="M300,104.76A2,2 0 1 1 296,104.76A2,2 0 1 1 300,104.76Z" style="fill:none;stroke:#000000;stroke-width:0.5" />
<path d="M28.25,272.78L33.755,268.48L39.26,264.19L44.765,259.9L50.27,255.6L55.776,251.31L61.281,247.01L66.786,242.72L72.291,238.42L77.796,234.13L83.301,229.83L88.806,225.54L94.311,221.24L99.816,216.95L105.32,212.66L110.83,208.36L116.33,204.07L121.84,199.77L127.34,195.48L132.85,191.18L138.35,186.89L143.86,182.59L149.36,178.3L154.87,174L160.37,169.71L165.88,165.42L171.38,161.12L176.89,156.83L182.39,152.53L187.9,148.24L193.4,143.94L198.91,139.65L204.41,135.35L209.92,131.06L215.42,126.76L220.93,122.47L226.43,118.18L231.94,113.88L237.44,109.59L242.95,105.29L248.45,101L253.96,96.703L259.46,92.408L264.97,88.114L270.47,83.819L275.98,79.525L281.48,75.23L286.99,70.936L292.49,66.641L298,62.347" style="fill:none;stroke:#000000" />
</g>
</svg>
